<?xml version="1.0" standalone="no"?>
<!DOCTYPE svg PUBLIC "-//W3C//DTD SVG 20010904//EN"
 "http://www.w3.org/TR/2001/REC-SVG-20010904/DTD/svg10.dtd">
<svg version="1.0" xmlns="http://www.w3.org/2000/svg"
 width="1024.000000pt" height="550.000000pt" viewBox="0 0 1024.000000 550.000000"
 preserveAspectRatio="xMidYMid meet">
<metadata>
Created by potrace 1.16, written by Peter Selinger 2001-2019
</metadata>
<g transform="translate(0.000000,550.000000) scale(0.100000,-0.100000)"
fill="#000000" stroke="none">
<path d="M0 2750 l0 -2750 5120 0 5120 0 0 2750 0 2750 -5120 0 -5120 0 0
-2750z m6103 2673 c-7 -2 -21 -2 -30 0 -10 3 -4 5 12 5 17 0 24 -2 18 -5z
m-5416 -9 c-3 -3 -12 -4 -19 -1 -8 3 -5 6 6 6 11 1 17 -2 13 -5z m5520 0 c-3
-3 -12 -4 -19 -1 -8 3 -5 6 6 6 11 1 17 -2 13 -5z m0 -40 c-3 -3 -12 -4 -19
-1 -8 3 -5 6 6 6 11 1 17 -2 13 -5z m-5580 -10 c-3 -3 -12 -4 -19 -1 -8 3 -5
6 6 6 11 1 17 -2 13 -5z m5640 0 c-3 -3 -12 -4 -19 -1 -8 3 -5 6 6 6 11 1 17
-2 13 -5z m-3527 -939 l0 -845 545 0 545 0 0 85 c0 47 4 85 9 85 5 0 56 -27
113 -59 l103 -60 3 805 2 804 1190 0 1190 0 0 -1190 0 -1190 -1190 0 -1190 0
0 165 0 164 -111 -64 c-60 -36 -112 -65 -115 -65 -2 0 -4 38 -4 85 l0 85 -545
0 -545 0 0 -170 0 -170 -180 0 -180 0 0 -125 0 -125 -150 0 -150 0 0 125 0
125 -860 0 -860 0 0 651 c0 646 0 651 -21 681 -12 16 -18 32 -15 35 3 4 6 2 6
-4 0 -19 62 -72 106 -90 l44 -18 0 -223 0 -224 29 -29 29 -29 346 0 c365 0
385 2 405 47 8 16 11 181 11 532 0 499 0 509 -21 535 l-20 26 -369 0 -369 0
-20 -26 c-17 -22 -21 -41 -21 -110 l0 -83 -43 -19 c-24 -11 -61 -36 -82 -57
-20 -21 -32 -29 -26 -17 6 11 16 24 21 27 6 4 10 146 10 391 l0 384 1190 0
1190 0 0 -845z m-2580 802 c0 -2 -15 -16 -32 -33 l-33 -29 29 33 c28 30 36 37
36 29z m6586 -29 l29 -33 -32 29 c-31 28 -38 36 -30 36 2 0 16 -15 33 -32z
m-6546 9 c0 -2 -17 -19 -37 -38 l-38 -34 34 38 c33 34 41 42 41 34z m6510 -32
c19 -19 32 -35 29 -35 -3 0 -20 16 -39 35 -19 19 -32 35 -29 35 3 0 20 -16 39
-35z m-6633 -1708 c-1 -298 -2 -52 -2 548 0 600 1 843 2 542 2 -302 2 -792 0
-1090z m6720 0 c-1 -298 -2 -52 -2 548 0 600 1 843 2 542 2 -302 2 -792 0
-1090z m-5548 1269 c8 -9 10 -157 9 -532 l-3 -519 -354 -3 c-253 -2 -358 1
-367 9 -11 9 -14 58 -14 235 l0 224 34 0 c39 0 88 31 130 83 42 52 49 144 16
213 -25 51 -89 99 -147 110 l-33 6 0 82 c0 50 5 87 12 94 19 19 701 17 717 -2z
m1948 -489 c-1 -89 -3 -13 -3 168 0 182 2 254 3 162 2 -93 2 -241 0 -330z
m360 146 c-3 -10 -5 -2 -5 17 0 19 2 27 5 18 2 -10 2 -26 0 -35z m-3250 -5
c-3 -8 -6 -5 -6 6 -1 11 2 17 5 13 3 -3 4 -12 1 -19z m203 -43 c0 -51 -3 -65
-15 -65 -11 0 -15 12 -16 48 l0 47 -18 -45 c-10 -24 -23 -46 -30 -48 -10 -3
-51 76 -51 99 0 21 22 7 34 -23 l14 -32 16 33 c9 17 21 29 26 26 6 -4 10 1 10
9 0 9 7 16 15 16 12 0 15 -14 15 -65z m74 59 c34 -13 12 -74 -26 -74 -13 0
-18 -8 -18 -25 0 -14 -4 -25 -10 -25 -6 0 -10 28 -10 65 0 62 1 65 24 65 13 0
31 -3 40 -6z m-277 -106 c-3 -8 -6 -5 -6 6 -1 11 2 17 5 13 3 -3 4 -12 1 -19z
m2927 -247 c-2 -3 -12 3 -22 13 -16 17 -16 18 5 5 12 -7 20 -15 17 -18z m149
-988 c-7 -2 -21 -2 -30 0 -10 3 -4 5 12 5 17 0 24 -2 18 -5z m60 0 c-7 -2 -21
-2 -30 0 -10 3 -4 5 12 5 17 0 24 -2 18 -5z m65 0 c-10 -2 -26 -2 -35 0 -10 3
-2 5 17 5 19 0 27 -2 18 -5z m-211 -9 c-3 -3 -12 -4 -19 -1 -8 3 -5 6 6 6 11
1 17 -2 13 -5z m286 -1 c-7 -2 -19 -2 -25 0 -7 3 -2 5 12 5 14 0 19 -2 13 -5z
m-336 -9 c-3 -3 -12 -4 -19 -1 -8 3 -5 6 6 6 11 1 17 -2 13 -5z m390 0 c-3 -3
-12 -4 -19 -1 -8 3 -5 6 6 6 11 1 17 -2 13 -5z m-502 -38 c-28 -12 -65 -39
-83 -60 -17 -20 -32 -32 -32 -27 0 25 114 110 150 110 8 1 -8 -10 -35 -23z
m223 17 c-10 -2 -28 -2 -40 0 -13 2 -5 4 17 4 22 1 32 -1 23 -4z m170 0 c-10
-2 -26 -2 -35 0 -10 3 -2 5 17 5 19 0 27 -2 18 -5z m-251 -9 c-3 -3 -12 -4
-19 -1 -8 3 -5 6 6 6 11 1 17 -2 13 -5z m326 -1 c-7 -2 -19 -2 -25 0 -7 3 -2
5 12 5 14 0 19 -2 13 -5z m-366 -9 c-3 -3 -12 -4 -19 -1 -8 3 -5 6 6 6 11 1
17 -2 13 -5z m-45 -54 c-4 -52 -22 -66 -41 -32 -9 15 -11 15 -24 2 -28 -28
-29 -56 -4 -85 29 -35 73 -37 99 -5 23 29 23 51 -2 83 -26 33 -25 49 3 45 13
-2 30 -17 41 -39 27 -49 11 -106 -36 -133 -29 -18 -30 -20 -12 -27 12 -5 13
-8 4 -8 -8 0 -31 7 -50 14 -34 13 -35 13 -7 14 77 2 121 66 90 130 -10 19 -24
37 -32 39 -10 3 -7 -5 7 -23 27 -34 28 -79 2 -105 -41 -41 -93 -35 -126 15
-20 30 -13 66 18 95 12 11 17 20 11 20 -19 0 -53 -51 -53 -79 0 -15 7 -37 16
-49 8 -12 11 -22 7 -22 -16 0 -37 45 -35 75 1 29 1 29 -7 5 l-9 -25 -1 24 c-1
30 61 94 83 85 11 -4 16 -2 14 6 -2 7 2 14 9 17 8 3 13 -11 16 -39 l4 -43 1
48 c1 26 5 47 10 47 4 0 5 -22 4 -50z m622 -1 c14 -17 26 -38 26 -47 -1 -9 -7
-3 -14 14 -8 17 -29 43 -47 58 -19 15 -24 23 -13 17 12 -6 34 -24 48 -42z
m-64 5 c0 -2 -9 0 -20 6 -11 6 -20 13 -20 16 0 2 9 0 20 -6 11 -6 20 -13 20
-16z m40 -35 c15 -28 5 -23 -15 7 -9 15 -12 23 -6 20 6 -4 16 -16 21 -27z
m-3656 -15 c3 -8 2 -12 -4 -9 -6 3 -10 10 -10 16 0 14 7 11 14 -7z m6607 -7
c-10 -9 -11 -8 -5 6 3 10 9 15 12 12 3 -3 0 -11 -7 -18z m-6647 -3 c3 -8 2
-12 -4 -9 -6 3 -10 10 -10 16 0 14 7 11 14 -7z m6687 -7 c-10 -9 -11 -8 -5 6
3 10 9 15 12 12 3 -3 0 -11 -7 -18z m-6610 -34 c13 -16 12 -17 -3 -4 -10 7
-18 15 -18 17 0 8 8 3 21 -13z m3669 2 c0 -23 -59 -84 -103 -106 -21 -11 -41
-19 -43 -16 -2 2 14 12 36 22 44 20 100 76 100 100 0 8 2 15 5 15 3 0 5 -7 5
-15z m2880 11 c0 -2 -8 -10 -17 -17 -16 -13 -17 -12 -4 4 13 16 21 21 21 13z
m-3652 -76 c4 0 18 -10 32 -21 l25 -21 -33 19 c-32 17 -72 62 -72 80 0 4 10
-7 21 -24 12 -18 24 -33 27 -33z m692 20 c-19 -17 -38 -30 -44 -30 -9 0 64 58
74 59 3 0 -11 -13 -30 -29z m-3579 -17 c13 -16 12 -17 -3 -4 -17 13 -22 21
-14 21 2 0 10 -8 17 -17z m6529 13 c0 -2 -8 -10 -17 -17 -16 -13 -17 -12 -4 4
13 16 21 21 21 13z m-3443 -62 c-3 -3 -12 -4 -19 -1 -8 3 -5 6 6 6 11 1 17 -2
13 -5z m66 -11 c-7 -2 -21 -2 -30 0 -10 3 -4 5 12 5 17 0 24 -2 18 -5z m220 0
c-7 -2 -19 -2 -25 0 -7 3 -2 5 12 5 14 0 19 -2 13 -5z m-100 -10 c-13 -2 -33
-2 -45 0 -13 2 -3 4 22 4 25 0 35 -2 23 -4z m-216 -9 c-3 -3 -12 -4 -19 -1 -8
3 -5 6 6 6 11 1 17 -2 13 -5z m410 0 c-3 -3 -12 -4 -19 -1 -8 3 -5 6 6 6 11 1
17 -2 13 -5z m-364 -11 c-7 -2 -19 -2 -25 0 -7 3 -2 5 12 5 14 0 19 -2 13 -5z
m314 1 c-3 -3 -12 -4 -19 -1 -8 3 -5 6 6 6 11 1 17 -2 13 -5z m-239 -11 c-10
-2 -26 -2 -35 0 -10 3 -2 5 17 5 19 0 27 -2 18 -5z m49 1 c-3 -3 -12 -4 -19
-1 -8 3 -5 6 6 6 11 1 17 -2 13 -5z m70 0 c-3 -3 -12 -4 -19 -1 -8 3 -5 6 6 6
11 1 17 -2 13 -5z m61 -1 c-10 -2 -26 -2 -35 0 -10 3 -2 5 17 5 19 0 27 -2 18
-5z m-2825 -40 c-7 -2 -19 -2 -25 0 -7 3 -2 5 12 5 14 0 19 -2 13 -5z m5470 0
c-7 -2 -19 -2 -25 0 -7 3 -2 5 12 5 14 0 19 -2 13 -5z m-5350 -10 c-7 -2 -19
-2 -25 0 -7 3 -2 5 12 5 14 0 19 -2 13 -5z m5230 0 c-7 -2 -19 -2 -25 0 -7 3
-2 5 12 5 14 0 19 -2 13 -5z m-5476 -9 c-3 -3 -12 -4 -19 -1 -8 3 -5 6 6 6 11
1 17 -2 13 -5z m50 -10 c-3 -3 -12 -4 -19 -1 -8 3 -5 6 6 6 11 1 17 -2 13 -5z
m5620 0 c-3 -3 -12 -4 -19 -1 -8 3 -5 6 6 6 11 1 17 -2 13 -5z m-5540 -10 c-3
-3 -12 -4 -19 -1 -8 3 -5 6 6 6 11 1 17 -2 13 -5z m5460 0 c-3 -3 -12 -4 -19
-1 -8 3 -5 6 6 6 11 1 17 -2 13 -5z m-5364 -11 c-7 -2 -19 -2 -25 0 -7 3 -2 5
12 5 14 0 19 -2 13 -5z m3400 0 l-1833 -3 0 -925 0 -925 2490 0 2490 0 0 85
c0 47 2 85 4 85 2 0 53 -29 115 -65 l111 -64 0 894 0 895 1190 0 1190 0 0
-1190 0 -1190 -1190 0 -1189 0 -3 74 -3 74 -100 -59 c-55 -32 -106 -58 -112
-59 -10 0 -13 23 -13 85 l0 85 -2640 0 -2640 0 0 1100 0 1100 -627 3 c-346 1
547 2 1982 2 1471 0 1810 -1 778 -2z m1864 1 c-3 -3 -12 -4 -19 -1 -8 3 -5 6
6 6 11 1 17 -2 13 -5z"/>
<path d="M4530 4970 c0 -52 2 -60 19 -60 28 0 51 10 51 23 0 7 -4 7 -12 -1
-22 -22 -48 -14 -48 13 0 26 26 35 46 16 5 -6 10 2 11 22 3 34 -9 47 -44 47
-21 0 -23 -4 -23 -60z m58 28 c3 -13 -3 -18 -22 -18 -20 0 -26 5 -26 21 0 15
5 20 22 17 13 -2 24 -11 26 -20z"/>
<path d="M887 4971 c-19 -54 -22 -75 -6 -48 5 9 21 17 34 17 13 0 29 -8 35
-17 9 -15 10 -14 4 6 -11 42 -34 91 -42 91 -4 0 -15 -22 -25 -49z m45 -3 c7
-15 4 -18 -16 -18 -24 0 -24 2 -14 32 7 20 13 27 16 18 3 -8 9 -23 14 -32z"/>
<path d="M4368 5009 c-9 -26 5 -88 20 -94 14 -5 15 -4 5 6 -15 15 -17 66 -4
71 5 2 3 8 -4 15 -9 8 -15 9 -17 2z"/>
<path d="M705 5000 c-4 -6 6 -10 22 -10 22 0 25 2 13 10 -19 12 -27 12 -35 0z"/>
<path d="M597 4993 c-15 -14 -6 -33 17 -39 14 -3 27 -13 29 -22 4 -15 5 -15 6
1 1 10 -9 21 -24 27 -33 12 -33 34 0 28 13 -3 22 -1 19 3 -6 11 -38 12 -47 2z"/>
<path d="M782 4988 c-15 -15 -16 -54 -2 -63 6 -3 7 1 4 9 -5 13 1 16 30 16 23
0 36 5 36 13 0 18 -21 37 -40 37 -9 0 -21 -5 -28 -12z m56 -15 c2 -9 -7 -13
-27 -13 -30 0 -39 9 -24 24 11 10 46 3 51 -11z"/>
<path d="M4250 4982 c0 -11 12 -24 27 -31 27 -12 27 -13 8 -27 -10 -8 -14 -14
-9 -14 12 0 34 21 34 32 0 5 -11 13 -25 18 -34 13 -33 34 1 26 17 -5 23 -3 19
4 -11 18 -55 12 -55 -8z"/>
<path d="M4333 4955 c0 -27 2 -38 4 -22 2 15 2 37 0 50 -2 12 -4 0 -4 -28z"/>
<path d="M4428 4975 c-10 -22 -9 -29 9 -46 21 -21 63 -19 63 2 0 5 -9 4 -20
-3 -16 -11 -23 -10 -37 5 -16 16 -15 17 18 17 43 0 51 7 38 31 -15 28 -57 24
-71 -6z m62 0 c0 -10 -10 -15 -30 -15 -22 0 -28 4 -24 15 4 8 17 15 30 15 15
0 24 -6 24 -15z"/>
<path d="M590 4931 c0 -9 30 -24 36 -18 2 1 -6 8 -16 15 -11 7 -20 8 -20 3z"/>
<path d="M720 4931 c0 -10 19 -25 25 -20 1 2 -3 10 -11 17 -8 7 -14 8 -14 3z"/>
<path d="M1670 4760 c-19 -19 -20 -33 -20 -545 l0 -526 25 -24 24 -25 354 0
c343 0 355 1 381 21 l26 20 0 530 c0 516 -1 530 -20 549 -19 19 -33 20 -385
20 -352 0 -366 -1 -385 -20z m748 -22 c17 -17 17 -1029 0 -1046 -9 -9 -104
-12 -365 -12 -338 0 -353 1 -363 19 -6 13 -10 194 -10 520 0 441 2 501 16 515
13 14 60 16 363 16 256 0 350 -3 359 -12z"/>
<path d="M4310 4760 c-19 -19 -20 -33 -20 -549 l0 -530 26 -20 c26 -20 38 -21
381 -21 l354 0 24 25 25 24 0 524 0 524 -23 21 c-23 22 -27 22 -385 22 -349 0
-363 -1 -382 -20z m744 -26 c14 -14 16 -75 16 -523 0 -381 -3 -510 -12 -519
-17 -17 -709 -17 -726 0 -9 9 -12 138 -12 519 0 448 2 509 16 523 13 14 60 16
359 16 299 0 346 -2 359 -16z"/>
<path d="M5489 4761 l-24 -19 -3 -509 c-1 -279 0 -518 3 -530 3 -12 15 -32 27
-43 21 -19 34 -20 380 -20 l359 0 24 25 25 24 0 519 c0 510 0 520 -21 546
l-20 26 -364 0 c-342 0 -364 -1 -386 -19z m745 -33 c14 -20 16 -85 16 -510 0
-293 -4 -497 -10 -512 l-10 -26 -362 2 -363 3 -3 519 c-1 375 1 523 9 532 9
11 78 14 360 14 l348 0 15 -22z"/>
<path d="M540 4376 c0 -10 9 -16 21 -16 24 0 21 23 -4 28 -10 2 -17 -3 -17
-12z"/>
<path d="M7764 2436 c-3 -7 -4 -33 -2 -57 3 -38 6 -44 26 -45 18 -1 19 -1 2 3
-17 4 -20 12 -20 53 0 42 3 49 23 53 l22 4 -23 2 c-12 0 -25 -5 -28 -13z"/>
<path d="M7881 2388 c1 -35 4 -51 6 -35 2 15 8 27 13 27 5 0 18 -12 30 -27 18
-24 19 -25 10 -4 -9 18 -9 29 1 47 8 17 9 28 2 35 -6 6 -9 2 -9 -13 1 -17 -5
-24 -21 -26 -19 -3 -23 1 -23 22 0 15 7 26 18 29 13 4 11 5 -5 6 -22 1 -23 -3
-22 -61z"/>
<path d="M7828 2428 c7 -7 12 -24 12 -38 0 -14 -5 -31 -12 -38 -9 -9 -9 -12 0
-12 7 0 17 11 22 25 11 29 -3 75 -22 75 -9 0 -9 -3 0 -12z"/>
<path d="M8098 2428 c-8 -22 7 -91 20 -94 7 -1 8 0 2 3 -12 6 -13 70 -1 75 5
2 3 8 -4 15 -10 9 -15 9 -17 1z"/>
<path d="M7977 2413 c-15 -14 -6 -33 18 -39 14 -3 25 -12 25 -20 0 -17 -22
-18 -38 -2 -9 9 -12 9 -12 1 0 -14 36 -27 50 -18 18 11 10 35 -15 45 -33 12
-33 34 0 28 13 -3 22 -1 19 3 -6 11 -38 12 -47 2z"/>
<path d="M8063 2380 c0 -25 2 -35 4 -22 2 12 2 32 0 45 -2 12 -4 2 -4 -23z"/>
<path d="M8162 2408 c-21 -21 -14 -57 13 -70 22 -10 28 -9 43 7 16 18 16 18 0
6 -18 -13 -58 -7 -58 10 0 5 16 9 35 9 28 0 35 4 35 19 0 29 -45 42 -68 19z
m56 -15 c2 -9 -7 -13 -27 -13 -30 0 -39 9 -24 24 11 10 46 3 51 -11z"/>
<path d="M7845 2185 l-25 -24 0 -526 0 -526 25 -24 24 -25 361 0 361 0 24 25
25 24 0 526 0 526 -25 24 -24 25 -361 0 -361 0 -24 -25z m745 -25 c19 -19 20
-33 20 -525 0 -492 -1 -506 -20 -525 -19 -19 -33 -20 -360 -20 -327 0 -341 1
-360 20 -19 19 -20 33 -20 525 0 492 1 506 20 525 19 19 33 20 360 20 327 0
341 -1 360 -20z"/>
<path d="M9036 2189 l-26 -20 0 -534 0 -534 22 -21 c21 -19 33 -20 379 -20
197 0 365 3 374 6 44 17 45 35 45 569 0 534 -1 552 -45 569 -9 3 -175 6 -369
6 -342 0 -354 -1 -380 -21z m744 -29 c6 -9 10 -222 10 -527 0 -452 -2 -513
-16 -527 -13 -14 -59 -16 -352 -16 -289 0 -341 2 -360 16 l-22 15 0 514 0 514
23 16 c19 14 65 15 365 13 292 -3 344 -5 352 -18z"/>
</g>
</svg>
